<?xml version="1.0" encoding="UTF-8" standalone="no"?>
<!DOCTYPE svg PUBLIC "-//W3C//DTD SVG 1.1//EN" "http://www.w3.org/Graphics/SVG/1.1/DTD/svg11.dtd">
<svg width="100%" height="100%" viewBox="0 0 80 80" version="1.1" xmlns="http://www.w3.org/2000/svg" xmlns:xlink="http://www.w3.org/1999/xlink" xml:space="preserve" xmlns:serif="http://www.serif.com/" style="fill-rule:evenodd;clip-rule:evenodd;stroke-linejoin:round;stroke-miterlimit:2;">
    <g transform="matrix(0.0390914,0,0,0.0390914,-1.02938,-25.8055)">
        <g transform="matrix(20.993,0,-19.3126,16.7143,1304.54,1980.11)">
            <path d="M13.311,16.641C13.193,15.971 13.132,15.281 13.132,14.578C13.132,8.027 18.45,2.709 25,2.709C31.55,2.709 36.868,8.027 36.868,14.578C36.868,15.281 36.807,15.971 36.689,16.641C36.536,17.516 36.286,18.358 35.952,19.156L25,40.377L14.048,19.156C13.714,18.358 13.464,17.516 13.311,16.641Z" style="fill-opacity:0.29;"/>
        </g>
        <g transform="matrix(51.5887,0,0,51.5887,-240.141,571.987)">
            <path d="M13.311,16.641C13.193,15.971 13.132,15.281 13.132,14.578C13.132,8.027 18.45,2.709 25,2.709C31.55,2.709 36.868,8.027 36.868,14.578C36.868,15.281 36.807,15.971 36.689,16.641C36.536,17.516 36.286,18.358 35.952,19.156L25,40.377L14.048,19.156C13.714,18.358 13.464,17.516 13.311,16.641Z" style="fill:rgb(53,132,178);"/>
        </g>
        <g transform="matrix(51.5887,0,0,51.5887,-240.141,571.987)">
            <path d="M13.311,16.641C13.193,15.971 13.132,15.281 13.132,14.578C13.132,8.027 18.45,2.709 25,2.709C31.55,2.709 36.868,8.027 36.868,14.578C36.868,15.281 36.807,15.971 36.689,16.641C36.536,17.516 36.286,18.358 35.952,19.156L25,40.377L14.048,19.156C13.714,18.358 13.464,17.516 13.311,16.641Z" style="fill:url(#_Linear1);"/>
        </g>
        <g transform="matrix(0.892372,0,0,0.892372,112.964,142.503)">
            <g transform="matrix(38.5977,0,0,38.5977,13.635,576.106)">
                <circle cx="26.839" cy="19.377" r="13.887" style="fill:white;"/>
            </g>
            <g id="Achat-avion" serif:id="Achat avion" transform="matrix(0.452048,0,0,0.452048,517.384,751.983)">
                <g transform="matrix(3.48839,-0.162661,0.162661,3.48839,74.5774,575.006)">
                    <path d="M39.473,367.589C36.815,363.416 39.158,357.838 44.359,356.114C48.293,354.811 72.516,346.525 72.516,346.525C72.516,346.525 45.177,300.331 32.975,279.713C31.573,277.344 31.321,274.466 32.291,271.889C33.261,269.313 35.348,267.315 37.965,266.459C46.978,263.509 59.365,259.456 65.718,257.377C68.327,256.523 71.183,256.896 73.486,258.391C91.027,269.778 165.979,318.434 165.979,318.434L238.547,295.487C238.547,295.487 172.867,219.452 148.467,191.204C146.474,188.897 145.772,185.743 146.598,182.808C147.425,179.873 149.67,177.548 152.574,176.62C161.907,173.638 173.795,169.84 179.629,167.976C181.907,167.248 184.38,167.449 186.512,168.534C211.52,181.264 369.073,261.469 369.073,261.469C369.073,261.469 470.672,233.579 493.428,227.332C496.371,226.524 499.471,226.471 502.44,227.178C515.483,230.282 552.226,239.027 552.226,239.027C579.826,245.462 584.972,265.724 557.234,275.23L248.022,363.114C165.307,388.792 47.935,380.874 39.473,367.589Z"/>
                </g>
                <g transform="matrix(1.31303,0,0,1.31303,-497.702,-480.98)">
                    <path d="M1506.02,606.938C1685.35,606.938 1830.94,752.528 1830.94,931.855C1830.94,1111.18 1685.35,1256.77 1506.02,1256.77C1326.69,1256.77 1181.1,1111.18 1181.1,931.855C1181.1,752.528 1326.69,606.938 1506.02,606.938ZM1463.58,653.089L1413.91,667.325L1432.63,732.649C1414.43,739.813 1399.6,749.224 1388.14,760.883C1376.68,772.541 1367.99,785.354 1362.06,799.322C1356.13,813.29 1352.98,828.117 1352.61,843.803C1352.24,859.489 1354.27,875.071 1358.71,890.547C1362.94,905.304 1368.65,917.783 1375.86,927.986C1383.07,938.188 1392.11,946.602 1402.96,953.227C1413.82,959.853 1426.71,964.727 1441.62,967.852C1456.54,970.977 1474,972.788 1494.01,973.285L1527.57,974.183C1553.13,975.035 1568.18,983.38 1572.72,999.216C1576.02,1010.73 1573.75,1021.51 1565.92,1031.55C1558.08,1041.58 1547.51,1048.51 1534.19,1052.32C1502.16,1061.51 1464.94,1056.01 1422.55,1035.83L1402.18,1129.89C1410.88,1134.4 1421.39,1138.11 1433.71,1141.01C1446.03,1143.9 1458.95,1145.85 1472.48,1146.84C1486,1147.83 1499.45,1147.87 1512.82,1146.96C1526.19,1146.05 1538.46,1143.99 1549.62,1140.79L1568.03,1205.04L1617.7,1190.8L1598.51,1123.86C1617.53,1111.4 1633.19,1099.12 1645.5,1087.02C1657.81,1074.92 1666.96,1062.37 1672.97,1049.35C1678.97,1036.34 1682.05,1022.6 1682.19,1008.15C1682.33,993.698 1679.93,977.834 1674.98,960.559C1666.83,932.125 1652.28,911.27 1631.34,897.993C1610.39,884.717 1580.35,877.066 1541.21,875.042L1506.27,873.374C1493.98,872.613 1483.48,869.973 1474.79,865.455C1466.09,860.936 1460.71,855.078 1458.65,847.88C1456.38,839.962 1458.66,831.615 1465.49,822.841C1472.33,814.067 1482.58,807.719 1496.26,803.799C1518.57,797.403 1543.77,799.722 1571.86,810.756L1589.53,721.563C1558.05,712.281 1522.31,711.231 1482.3,718.413L1463.58,653.089Z"/>
                </g>
            </g>
        </g>
    </g>
    <defs>
        <linearGradient id="_Linear1" x1="0" y1="0" x2="1" y2="0" gradientUnits="userSpaceOnUse" gradientTransform="matrix(25.8032,0.657364,-0.657364,25.8032,12.2279,19.4952)"><stop offset="0" style="stop-color:rgb(149,178,53);stop-opacity:1"/><stop offset="1" style="stop-color:rgb(95,120,14);stop-opacity:1"/></linearGradient>
    </defs>
</svg>
