<?xml version="1.0" encoding="UTF-8" standalone="no"?>
<!DOCTYPE svg PUBLIC "-//W3C//DTD SVG 1.1//EN" "http://www.w3.org/Graphics/SVG/1.1/DTD/svg11.dtd">
<svg width="100%" height="100%" viewBox="0 0 80 80" version="1.1" xmlns="http://www.w3.org/2000/svg" xmlns:xlink="http://www.w3.org/1999/xlink" xml:space="preserve" xmlns:serif="http://www.serif.com/" style="fill-rule:evenodd;clip-rule:evenodd;stroke-linejoin:round;stroke-miterlimit:2;">
    <g>
        <g transform="matrix(2.16008,-1.60022,1.60022,2.16008,-43.5277,31.7015)">
            <path d="M16.238,26.764L15.365,23.563C15.357,23.533 15.363,23.501 15.382,23.476C15.401,23.451 15.431,23.437 15.462,23.437L16.331,23.442C16.438,23.442 16.537,23.5 16.59,23.594L18.1,26.264C19.168,26.041 20.246,25.898 20.717,25.898L24.252,25.898L21.936,17.333C21.928,17.303 21.934,17.271 21.953,17.246C21.972,17.221 22.001,17.207 22.033,17.206L23.171,17.203C23.28,17.203 23.38,17.262 23.433,17.356L26.566,22.917L27.736,22.917C28.087,22.917 28.372,23.259 28.372,23.679C28.372,24.099 28.087,24.44 27.736,24.44L27.424,24.44L28.245,25.898L32.37,25.898C33.456,25.898 35.181,26.757 35.181,27.392C35.181,28.026 33.463,28.823 32.37,28.823L28.263,28.823L27.442,30.28L27.736,30.28C28.087,30.28 28.372,30.622 28.372,31.042C28.372,31.462 28.087,31.803 27.736,31.803L26.584,31.803L23.433,37.396C23.38,37.49 23.28,37.549 23.171,37.549L22.033,37.545C22.001,37.545 21.972,37.531 21.953,37.506C21.934,37.481 21.928,37.449 21.936,37.419L24.26,28.823L20.717,28.823C20.24,28.823 19.15,28.689 18.075,28.478L16.559,31.158C16.506,31.252 16.407,31.31 16.3,31.31L15.431,31.315C15.399,31.315 15.37,31.301 15.351,31.276C15.332,31.251 15.325,31.219 15.334,31.189L16.205,27.995C15.68,27.807 15.33,27.6 15.33,27.392C15.33,27.178 15.695,26.963 16.238,26.764Z"/>
        </g>
        <g transform="matrix(1.10507,0,0,1.21381,-1.5342,-10.3174)">
            <g transform="matrix(0.891892,0,0,0.826738,1.46944,8.27644)">
                <path d="M9.775,28.052L6.226,25.265L26.627,25.265L23.078,28.052L23.078,77.598L9.775,77.598L9.775,28.052Z"/>
            </g>
            <g transform="matrix(-0.867237,1.01718e-16,-5.66247e-17,-0.564417,42.2036,33.275)">
                <path d="M42.422,22.276L17.721,22.276L21.016,9.7L39.128,9.7L42.422,22.276Z" style="fill:white;"/>
                <path d="M42.422,24.952L17.721,24.952L15.925,21.355L19.68,7.024L40.464,7.024L44.218,21.355L42.422,24.952ZM42.422,22.276L39.128,9.7L21.016,9.7L17.721,22.276L42.422,22.276Z"/>
            </g>
            <g transform="matrix(-0.571039,6.58398e-17,-2.30388e-17,-0.279498,33.2964,21.675)">
                <path d="M42.422,22.276L17.721,22.276L19.7,9.7L40.444,9.7L42.422,22.276Z" style="fill:white;"/>
                <path d="M42.422,27.68L17.721,27.68L14.933,20.758L17.523,4.296L42.621,4.296L45.21,20.758L42.422,27.68ZM42.422,22.276L40.444,9.7L19.7,9.7L17.721,22.276L42.422,22.276Z"/>
            </g>
            <g transform="matrix(0.904921,0,0,0.823855,1.25972,7.63611)">
                <path d="M17.204,6.928L23.897,6.928L23.897,8.435L8.955,8.435L8.955,6.928L15.649,6.928L15.649,3.213L12.145,3.213L12.145,2.402L20.708,2.402L20.708,3.213L17.204,3.213L17.204,6.928Z"/>
            </g>
        </g>
    </g>
</svg>
