<?xml version="1.0" encoding="UTF-8" standalone="no"?>
<!DOCTYPE svg PUBLIC "-//W3C//DTD SVG 1.1//EN" "http://www.w3.org/Graphics/SVG/1.1/DTD/svg11.dtd">
<svg width="100%" height="100%" viewBox="0 0 80 80" version="1.1" xmlns="http://www.w3.org/2000/svg" xmlns:xlink="http://www.w3.org/1999/xlink" xml:space="preserve" xmlns:serif="http://www.serif.com/" style="fill-rule:evenodd;clip-rule:evenodd;stroke-linecap:round;stroke-linejoin:round;stroke-miterlimit:1.5;">
    <g id="Céréale" transform="matrix(0.0405063,0,0,0.0457666,-5.68434e-15,-1.79052)">
        <g transform="matrix(1.05246,0,0,1.05246,-35.3187,-90.4718)">
            <g transform="matrix(0.812286,0,0,0.812286,-334.088,323.717)">
                <g transform="matrix(1.62335,0,-2.79517e-16,1.46571,-632.376,-133.039)">
                    <path d="M984.543,607.93C929.468,554.245 894.45,473.844 894.45,384.049C894.45,294.253 929.468,213.852 984.543,160.168C1039.62,213.852 1074.64,294.253 1074.64,384.049C1074.64,473.844 1039.62,554.245 984.543,607.93Z" style="fill:rgb(215,205,28);stroke:rgb(31,31,31);stroke-width:27.45px;"/>
                </g>
                <g transform="matrix(1,0,0,1,-34.8238,0)">
                    <g transform="matrix(0.687674,0.964098,-0.759949,0.932633,807.275,-697.481)">
                        <path d="M984.543,607.93C929.468,554.245 894.45,473.844 894.45,384.049C894.45,294.253 929.468,213.852 984.543,160.168C1039.62,213.852 1074.64,294.253 1074.64,384.049C1074.64,473.844 1039.62,554.245 984.543,607.93Z" style="fill:rgb(215,205,28);stroke:rgb(31,31,31);stroke-width:29.69px;"/>
                    </g>
                    <g transform="matrix(-0.687674,0.964098,0.759949,0.932633,1194.13,-697.481)">
                        <path d="M984.543,607.93C929.468,554.245 894.45,473.844 894.45,384.049C894.45,294.253 929.468,213.852 984.543,160.168C1039.62,213.852 1074.64,294.253 1074.64,384.049C1074.64,473.844 1039.62,554.245 984.543,607.93Z" style="fill:rgb(215,205,28);stroke:rgb(31,31,31);stroke-width:29.69px;"/>
                    </g>
                    <g transform="matrix(0.687674,0.964098,-0.759949,0.932633,807.275,-456.242)">
                        <path d="M984.543,607.93C929.468,554.245 894.45,473.844 894.45,384.049C894.45,294.253 929.468,213.852 984.543,160.168C1039.62,213.852 1074.64,294.253 1074.64,384.049C1074.64,473.844 1039.62,554.245 984.543,607.93Z" style="fill:rgb(215,205,28);stroke:rgb(31,31,31);stroke-width:29.69px;"/>
                    </g>
                    <g transform="matrix(-0.687674,0.964098,0.759949,0.932633,1194.13,-456.242)">
                        <path d="M984.543,607.93C929.468,554.245 894.45,473.844 894.45,384.049C894.45,294.253 929.468,213.852 984.543,160.168C1039.62,213.852 1074.64,294.253 1074.64,384.049C1074.64,473.844 1039.62,554.245 984.543,607.93Z" style="fill:rgb(215,205,28);stroke:rgb(31,31,31);stroke-width:29.69px;"/>
                    </g>
                    <g transform="matrix(0.687674,0.964098,-0.759949,0.932633,807.275,-215.002)">
                        <path d="M984.543,607.93C929.468,554.245 894.45,473.844 894.45,384.049C894.45,294.253 929.468,213.852 984.543,160.168C1039.62,213.852 1074.64,294.253 1074.64,384.049C1074.64,473.844 1039.62,554.245 984.543,607.93Z" style="fill:rgb(215,205,28);stroke:rgb(31,31,31);stroke-width:29.69px;"/>
                    </g>
                    <g transform="matrix(-0.687674,0.964098,0.759949,0.932633,1194.13,-215.002)">
                        <path d="M984.543,607.93C929.468,554.245 894.45,473.844 894.45,384.049C894.45,294.253 929.468,213.852 984.543,160.168C1039.62,213.852 1074.64,294.253 1074.64,384.049C1074.64,473.844 1039.62,554.245 984.543,607.93Z" style="fill:rgb(215,205,28);stroke:rgb(31,31,31);stroke-width:29.69px;"/>
                    </g>
                </g>
                <g transform="matrix(1,0,0,1.00625,-21.6223,76.9078)">
                    <path d="M987.5,1637.39L987.5,621.358" style="fill:none;stroke:rgb(215,205,28);stroke-width:42.05px;"/>
                </g>
            </g>
            <g transform="matrix(0.812286,0,0,0.812286,708.618,323.717)">
                <g transform="matrix(1.62335,0,-2.79517e-16,1.46571,-632.376,-133.039)">
                    <path d="M984.543,607.93C929.468,554.245 894.45,473.844 894.45,384.049C894.45,294.253 929.468,213.852 984.543,160.168C1039.62,213.852 1074.64,294.253 1074.64,384.049C1074.64,473.844 1039.62,554.245 984.543,607.93Z" style="fill:rgb(215,205,28);stroke:rgb(31,31,31);stroke-width:27.45px;"/>
                </g>
                <g transform="matrix(1,0,0,1,-34.8238,0)">
                    <g transform="matrix(0.687674,0.964098,-0.759949,0.932633,807.275,-697.481)">
                        <path d="M984.543,607.93C929.468,554.245 894.45,473.844 894.45,384.049C894.45,294.253 929.468,213.852 984.543,160.168C1039.62,213.852 1074.64,294.253 1074.64,384.049C1074.64,473.844 1039.62,554.245 984.543,607.93Z" style="fill:rgb(215,205,28);stroke:rgb(31,31,31);stroke-width:29.69px;"/>
                    </g>
                    <g transform="matrix(-0.687674,0.964098,0.759949,0.932633,1194.13,-697.481)">
                        <path d="M984.543,607.93C929.468,554.245 894.45,473.844 894.45,384.049C894.45,294.253 929.468,213.852 984.543,160.168C1039.62,213.852 1074.64,294.253 1074.64,384.049C1074.64,473.844 1039.62,554.245 984.543,607.93Z" style="fill:rgb(215,205,28);stroke:rgb(31,31,31);stroke-width:29.69px;"/>
                    </g>
                    <g transform="matrix(0.687674,0.964098,-0.759949,0.932633,807.275,-456.242)">
                        <path d="M984.543,607.93C929.468,554.245 894.45,473.844 894.45,384.049C894.45,294.253 929.468,213.852 984.543,160.168C1039.62,213.852 1074.64,294.253 1074.64,384.049C1074.64,473.844 1039.62,554.245 984.543,607.93Z" style="fill:rgb(215,205,28);stroke:rgb(31,31,31);stroke-width:29.69px;"/>
                    </g>
                    <g transform="matrix(-0.687674,0.964098,0.759949,0.932633,1194.13,-456.242)">
                        <path d="M984.543,607.93C929.468,554.245 894.45,473.844 894.45,384.049C894.45,294.253 929.468,213.852 984.543,160.168C1039.62,213.852 1074.64,294.253 1074.64,384.049C1074.64,473.844 1039.62,554.245 984.543,607.93Z" style="fill:rgb(215,205,28);stroke:rgb(31,31,31);stroke-width:29.69px;"/>
                    </g>
                    <g transform="matrix(0.687674,0.964098,-0.759949,0.932633,807.275,-215.002)">
                        <path d="M984.543,607.93C929.468,554.245 894.45,473.844 894.45,384.049C894.45,294.253 929.468,213.852 984.543,160.168C1039.62,213.852 1074.64,294.253 1074.64,384.049C1074.64,473.844 1039.62,554.245 984.543,607.93Z" style="fill:rgb(215,205,28);stroke:rgb(31,31,31);stroke-width:29.69px;"/>
                    </g>
                    <g transform="matrix(-0.687674,0.964098,0.759949,0.932633,1194.13,-215.002)">
                        <path d="M984.543,607.93C929.468,554.245 894.45,473.844 894.45,384.049C894.45,294.253 929.468,213.852 984.543,160.168C1039.62,213.852 1074.64,294.253 1074.64,384.049C1074.64,473.844 1039.62,554.245 984.543,607.93Z" style="fill:rgb(215,205,28);stroke:rgb(31,31,31);stroke-width:29.69px;"/>
                    </g>
                </g>
                <g transform="matrix(1,0,0,1.00625,-21.6223,76.9078)">
                    <path d="M987.5,1637.39L987.5,621.358" style="fill:none;stroke:rgb(215,205,28);stroke-width:42.05px;"/>
                </g>
            </g>
        </g>
        <g transform="matrix(1,0,0,1,21.6223,0)">
            <g transform="matrix(1.62335,0,-2.79517e-16,1.46571,-632.376,-133.039)">
                <path d="M984.543,607.93C929.468,554.245 894.45,473.844 894.45,384.049C894.45,294.253 929.468,213.852 984.543,160.168C1039.62,213.852 1074.64,294.253 1074.64,384.049C1074.64,473.844 1039.62,554.245 984.543,607.93Z" style="fill:rgb(215,205,28);stroke:rgb(31,31,31);stroke-width:23.47px;"/>
            </g>
            <g transform="matrix(1,0,0,1,-34.8238,0)">
                <g transform="matrix(0.687674,0.964098,-0.759949,0.932633,807.275,-697.481)">
                    <path d="M984.543,607.93C929.468,554.245 894.45,473.844 894.45,384.049C894.45,294.253 929.468,213.852 984.543,160.168C1039.62,213.852 1074.64,294.253 1074.64,384.049C1074.64,473.844 1039.62,554.245 984.543,607.93Z" style="fill:rgb(215,205,28);stroke:rgb(31,31,31);stroke-width:25.38px;"/>
                </g>
                <g transform="matrix(-0.687674,0.964098,0.759949,0.932633,1194.13,-697.481)">
                    <path d="M984.543,607.93C929.468,554.245 894.45,473.844 894.45,384.049C894.45,294.253 929.468,213.852 984.543,160.168C1039.62,213.852 1074.64,294.253 1074.64,384.049C1074.64,473.844 1039.62,554.245 984.543,607.93Z" style="fill:rgb(215,205,28);stroke:rgb(31,31,31);stroke-width:25.38px;"/>
                </g>
                <g transform="matrix(0.687674,0.964098,-0.759949,0.932633,807.275,-456.242)">
                    <path d="M984.543,607.93C929.468,554.245 894.45,473.844 894.45,384.049C894.45,294.253 929.468,213.852 984.543,160.168C1039.62,213.852 1074.64,294.253 1074.64,384.049C1074.64,473.844 1039.62,554.245 984.543,607.93Z" style="fill:rgb(215,205,28);stroke:rgb(31,31,31);stroke-width:25.38px;"/>
                </g>
                <g transform="matrix(-0.687674,0.964098,0.759949,0.932633,1194.13,-456.242)">
                    <path d="M984.543,607.93C929.468,554.245 894.45,473.844 894.45,384.049C894.45,294.253 929.468,213.852 984.543,160.168C1039.62,213.852 1074.64,294.253 1074.64,384.049C1074.64,473.844 1039.62,554.245 984.543,607.93Z" style="fill:rgb(215,205,28);stroke:rgb(31,31,31);stroke-width:25.38px;"/>
                </g>
                <g transform="matrix(0.687674,0.964098,-0.759949,0.932633,807.275,-215.002)">
                    <path d="M984.543,607.93C929.468,554.245 894.45,473.844 894.45,384.049C894.45,294.253 929.468,213.852 984.543,160.168C1039.62,213.852 1074.64,294.253 1074.64,384.049C1074.64,473.844 1039.62,554.245 984.543,607.93Z" style="fill:rgb(215,205,28);stroke:rgb(31,31,31);stroke-width:25.38px;"/>
                </g>
                <g transform="matrix(-0.687674,0.964098,0.759949,0.932633,1194.13,-215.002)">
                    <path d="M984.543,607.93C929.468,554.245 894.45,473.844 894.45,384.049C894.45,294.253 929.468,213.852 984.543,160.168C1039.62,213.852 1074.64,294.253 1074.64,384.049C1074.64,473.844 1039.62,554.245 984.543,607.93Z" style="fill:rgb(215,205,28);stroke:rgb(31,31,31);stroke-width:25.38px;"/>
                </g>
            </g>
            <g transform="matrix(1,0,0,1.00625,-21.6223,76.9078)">
                <path d="M987.5,1637.39L987.5,621.358" style="fill:none;stroke:rgb(215,205,28);stroke-width:35.95px;"/>
            </g>
        </g>
    </g>
</svg>
