<?xml version="1.0" encoding="UTF-8" standalone="no"?>
<!DOCTYPE svg PUBLIC "-//W3C//DTD SVG 1.1//EN" "http://www.w3.org/Graphics/SVG/1.1/DTD/svg11.dtd">
<svg width="100%" height="100%" viewBox="0 0 80 80" version="1.1" xmlns="http://www.w3.org/2000/svg" xmlns:xlink="http://www.w3.org/1999/xlink" xml:space="preserve" xmlns:serif="http://www.serif.com/" style="fill-rule:evenodd;clip-rule:evenodd;stroke-linejoin:round;stroke-miterlimit:2;">
    <g transform="matrix(1.12666,0,0,1.12666,-5.06651,-5.06651)">
        <g transform="matrix(-0.453273,0,0,0.453273,52.0555,38.2709)">
            <rect x="29" y="47" width="23" height="23"/>
            <rect x="29" y="47" width="23" height="23"/>
        </g>
        <g transform="matrix(-0.453273,0,0,0.453273,64.4633,38.2709)">
            <rect x="29" y="47" width="23" height="23"/>
            <rect x="29" y="47" width="23" height="23"/>
        </g>
        <g transform="matrix(-0.453273,0,0,0.453273,58.3575,26.1315)">
            <rect x="29" y="47" width="23" height="23"/>
            <rect x="29" y="47" width="23" height="23"/>
        </g>
        <g transform="matrix(-1,0,0,1,80,0)">
            <path d="M73,70L53,70L53,43L27,43L27,70L7,70L7,23L39.982,10L73,23L73,70Z" style="fill:white;"/>
            <path d="M73,70L73,23L39.982,10L7,23L7,70L27,70L27,43L53,43L53,70L73,70ZM67.305,64.305L58.695,64.305L58.695,37.305L21.305,37.305L21.305,64.305L12.695,64.305L12.695,26.877L39.983,16.121L67.305,26.878L67.305,64.305Z"/>
        </g>
    </g>
</svg>
