<?xml version="1.0" encoding="UTF-8" standalone="no"?>
<!DOCTYPE svg PUBLIC "-//W3C//DTD SVG 1.1//EN" "http://www.w3.org/Graphics/SVG/1.1/DTD/svg11.dtd">
<svg width="100%" height="100%" viewBox="0 0 80 80" version="1.1" xmlns="http://www.w3.org/2000/svg" xmlns:xlink="http://www.w3.org/1999/xlink" xml:space="preserve" xmlns:serif="http://www.serif.com/" style="fill-rule:evenodd;clip-rule:evenodd;stroke-linecap:round;stroke-linejoin:round;stroke-miterlimit:1.5;">
    <g transform="matrix(-0.0847988,-0.026071,0.026071,-0.0847988,133.725,189.221)">
        <g transform="matrix(-0.363888,-0.0998044,0.0998044,-0.363888,2137.3,1704.88)">
            <path d="M1306.41,-139.225L1324.73,23.921C1394.37,50.484 1455.7,95.049 1502.48,153.067L1663.31,120.071C1709.6,196.153 1737.49,281.993 1744.76,370.756L1595.26,438.59C1591.51,513.025 1568.08,585.132 1527.36,647.552L1608.44,790.306C1550.38,857.845 1477.37,910.898 1395.19,945.238L1284.48,824.016C1212.53,843.456 1136.71,843.456 1064.76,824.016L954.051,945.238C871.878,910.898 798.858,857.845 740.806,790.306L821.883,647.552C781.161,585.132 757.732,513.025 753.987,438.59L604.486,370.756C611.753,281.993 639.644,196.153 685.938,120.071L846.759,153.067C893.54,95.049 954.879,50.484 1024.51,23.921L1042.83,-139.225C1129.49,-159.743 1219.75,-159.743 1306.41,-139.225ZM1174.62,131.408C1332.48,131.408 1460.64,259.57 1460.64,417.429C1460.64,575.289 1332.48,703.451 1174.62,703.451C1016.76,703.451 888.6,575.289 888.6,417.429C888.6,259.57 1016.76,131.408 1174.62,131.408Z" style="stroke:black;stroke-width:29.87px;"/>
        </g>
        <g transform="matrix(-0.426128,0.131011,-0.131011,-0.426128,1853.35,1223.48)">
            <path d="M1284.75,-143.912L1302.92,8.029C1363.18,26.915 1418.54,58.872 1465.02,101.62L1605.69,41.382C1654.41,97.232 1691.82,162.017 1715.82,232.135L1593.32,323.839C1607.1,385.472 1607.1,449.386 1593.32,511.02L1715.82,602.724C1691.82,672.842 1654.41,737.627 1605.69,793.476L1465.02,733.238C1418.54,775.986 1363.18,807.943 1302.92,826.829L1284.75,978.771C1212.03,993.039 1137.22,993.039 1064.49,978.771L1046.32,826.829C986.059,807.943 930.708,775.986 884.22,733.238L743.551,793.476C694.831,737.627 657.427,672.842 633.42,602.724L755.922,511.02C742.145,449.386 742.145,385.472 755.922,323.839L633.42,232.135C657.427,162.017 694.831,97.232 743.551,41.382L884.22,101.62C930.708,58.872 986.059,26.915 1046.32,8.029L1064.49,-143.912C1137.22,-158.181 1212.03,-158.181 1284.75,-143.912ZM1174.62,131.408C1332.48,131.408 1460.64,259.57 1460.64,417.429C1460.64,575.289 1332.48,703.451 1174.62,703.451C1016.76,703.451 888.6,575.289 888.6,417.429C888.6,259.57 1016.76,131.408 1174.62,131.408Z" style="stroke:black;stroke-width:25.28px;"/>
        </g>
    </g>
</svg>
