<?xml version="1.0" encoding="UTF-8" standalone="no"?>
<!DOCTYPE svg PUBLIC "-//W3C//DTD SVG 1.1//EN" "http://www.w3.org/Graphics/SVG/1.1/DTD/svg11.dtd">
<svg width="100%" height="100%" viewBox="0 0 80 80" version="1.1" xmlns="http://www.w3.org/2000/svg" xmlns:xlink="http://www.w3.org/1999/xlink" xml:space="preserve" xmlns:serif="http://www.serif.com/" style="fill-rule:evenodd;clip-rule:evenodd;stroke-linecap:round;stroke-linejoin:round;stroke-miterlimit:1.5;">
    <g transform="matrix(3.13529,0,0,3.13529,-38.3823,-49.7159)">
        <g transform="matrix(0.982649,0,0,0.995545,0.43377,-0.93103)">
            <path d="M18.173,31.926L25,17.477L31.827,31.926C32.144,32.744 32.317,33.633 32.317,34.562C32.317,38.6 29.038,41.879 25,41.879C20.962,41.879 17.683,38.6 17.683,34.562C17.683,33.633 17.856,32.744 18.173,31.926Z" style="fill:rgb(215,184,25);stroke:black;stroke-width:0.95px;"/>
        </g>
        <g transform="matrix(1.24153,0.281343,-0.317616,1.4016,3.31411,-19.1385)">
            <path d="M22.049,32.57L22.76,32.523C22.874,34.26 24.316,35.611 26.057,35.611C26.261,35.611 26.465,35.592 26.666,35.554L26.797,36.255C26.553,36.3 26.305,36.324 26.057,36.324C23.941,36.324 22.188,34.682 22.049,32.57Z" style="fill:white;"/>
            <path d="M22.006,32.047C22.76,32.054 22.763,32.038 22.887,32.068C23.127,32.125 23.271,32.324 23.276,32.494C23.279,32.572 23.166,33.437 23.814,34.342C24.111,34.757 24.793,35.382 25.824,35.491C26.544,35.566 26.706,35.383 26.759,35.527C26.779,35.582 26.768,35.583 26.894,36.24C26.915,36.352 26.713,36.361 26.629,36.374C24.097,36.781 21.895,35.011 21.477,32.71C21.451,32.564 21.434,32.562 21.481,32.421C21.549,32.219 21.754,32.107 21.808,32.091C21.872,32.071 21.941,32.066 22.006,32.047ZM22.995,34.257C23.064,34.397 23.146,34.54 23.243,34.686C23.644,35.283 24.804,36.433 26.683,36.182L26.585,35.661C26.23,35.726 25.029,35.876 23.837,35.053C23.485,34.809 23.209,34.534 22.995,34.257Z" style="fill:white;"/>
        </g>
    </g>
</svg>
