<?xml version="1.0" encoding="UTF-8" standalone="no"?>
<!DOCTYPE svg PUBLIC "-//W3C//DTD SVG 1.1//EN" "http://www.w3.org/Graphics/SVG/1.1/DTD/svg11.dtd">
<svg width="100%" height="100%" viewBox="0 0 80 80" version="1.1" xmlns="http://www.w3.org/2000/svg" xmlns:xlink="http://www.w3.org/1999/xlink" xml:space="preserve" xmlns:serif="http://www.serif.com/" style="fill-rule:evenodd;clip-rule:evenodd;stroke-linecap:round;stroke-linejoin:round;stroke-miterlimit:1.5;">
    <g id="Viande" transform="matrix(-1.6,0,0,-1.6,79.8068,77.6928)">
        <g>
            <path d="M36.591,29.245C27.317,33.151 27.304,35.416 22.068,37.676C17.78,39.526 12.283,38.896 8.584,36.896C5.252,35.095 1.373,30.119 4.012,25C6.222,20.714 9.242,19.949 12.378,12.965C14.282,8.726 18.091,6.095 22.351,4.821C29.174,2.78 35.992,3.739 40.698,6.966C45.131,10.006 48.376,14.287 45.862,21.201C45.519,22.143 43.808,26.206 36.591,29.245Z" style="fill:white;stroke:black;stroke-width:1.83px;"/>
            <g transform="matrix(1,-0,-0,1,-7.10543e-15,6.03182)">
                <path d="M36.591,29.245C27.317,33.151 27.304,35.416 22.068,37.676C17.78,39.526 12.283,38.896 8.584,36.896C5.252,35.095 1.373,30.119 4.012,25C6.222,20.714 9.242,19.949 12.378,12.965C14.282,8.726 18.091,6.095 22.351,4.821C29.174,2.78 35.992,3.739 40.698,6.966C45.131,10.006 48.376,14.287 45.862,21.201C45.519,22.143 43.808,26.206 36.591,29.245Z" style="fill:rgb(85,53,18);stroke:rgb(53,54,54);stroke-width:1.83px;"/>
            </g>
            <g transform="matrix(0.821681,-5.20934e-18,-5.20934e-18,0.779143,4.05598,11.116)">
                <path d="M34.788,28.7C25.515,32.606 25.238,35.534 19.917,37.561C16.052,39.033 12.257,39.254 8.655,37.068C5.639,35.237 2.423,30.685 5.606,26.21C8.381,22.307 10.615,20.494 13.752,13.509C15.655,9.271 19.8,6.182 24.06,4.908C30.883,2.866 35.268,3.284 40.175,6.261C44.758,9.042 46.711,15.028 45.673,18.889C44.588,22.926 42.005,25.661 34.788,28.7Z" style="fill:rgb(53,54,54);stroke:white;stroke-width:3.66px;"/>
            </g>
            <g>
                <g transform="matrix(1,0,0,1,-7.10543e-15,6.03182)">
                    <path d="M36.591,29.245C27.317,33.151 27.304,35.416 22.068,37.676C17.78,39.526 12.283,38.896 8.584,36.896C5.252,35.095 1.373,30.119 4.012,25C6.222,20.714 9.242,19.949 12.378,12.965C14.282,8.726 18.091,6.095 22.351,4.821C29.174,2.78 35.992,3.739 40.698,6.966C45.131,10.006 48.376,14.287 45.862,21.201C45.519,22.143 43.808,26.206 36.591,29.245Z" style="fill:rgb(85,53,18);stroke:black;stroke-width:1.83px;"/>
                </g>
                <g transform="matrix(-1.62206,-0.505252,0.985947,-1.85565,53.4577,76.6711)">
                    <ellipse cx="31.546" cy="14.245" rx="2.454" ry="1.828" style="fill:white;stroke:black;stroke-width:0.85px;"/>
                </g>
                <g transform="matrix(-0.992732,0,0,-1.54335,49.3291,68.1818)">
                    <path d="M32.027,31.409C31.964,31.554 32.062,31.714 31.999,31.858C31.997,31.863 31.453,32.207 31.045,32.434C24.42,36.103 16.846,34.877 13.167,34.057C12.666,33.945 12.465,33.645 12.432,33.596C12.428,33.59 12.414,32.935 12.418,32.932C12.655,32.775 12.82,32.55 13.132,32.463C13.847,32.265 13.877,32.379 14.592,32.576C17.359,33.341 24.447,35 31.09,31.521C31.171,31.478 31.228,31.404 31.331,31.392C31.677,31.351 31.679,31.451 32.027,31.409Z" style="fill:white;"/>
                </g>
            </g>
            <g transform="matrix(0.052905,-0.632609,0.581504,0.0335275,-6.38678,38.422)">
                <path d="M15.966,14.929L6.993,15.746" style="fill:none;stroke:black;stroke-width:2.97px;"/>
            </g>
            <g transform="matrix(0.052905,-0.632609,0.581504,0.0335275,37.2138,26.2339)">
                <path d="M15.966,14.929L6.993,15.746" style="fill:none;stroke:black;stroke-width:2.97px;"/>
            </g>
        </g>
    </g>
</svg>
